<?xml version="1.0" encoding="utf-8"?>
<!-- Generator: Adobe Illustrator 25.2.3, SVG Export Plug-In . SVG Version: 6.00 Build 0)  -->
<svg version="1.1" xmlns="http://www.w3.org/2000/svg" xmlns:xlink="http://www.w3.org/1999/xlink" x="0px" y="0px"
	 viewBox="0 0 600 600" style="enable-background:new 0 0 600 600;" xml:space="preserve">
<style type="text/css">
	.st0{fill:#9AB3DA;}
	.st1{fill:none;stroke:#DEEBFF;stroke-linecap:round;stroke-linejoin:round;stroke-miterlimit:10;}
	.st2{fill:#F68D88;}
	.st3{fill:none;stroke:#ECBDBB;stroke-linecap:round;stroke-linejoin:round;stroke-miterlimit:10;}
	.st4{fill:#F48C87;}
	.st5{fill:#F2F3F5;}
	.st6{fill:#3F4A7B;}
	.st7{fill:#98B1D8;}
	.st8{fill:#F0F1F3;}
	.st9{fill:#21263F;}
	.st10{fill:#272E4B;}
	.st11{fill:#965653;}
	.st12{fill:#5E6D85;}
	.st13{fill:#939495;}
	.st14{fill:#7C7C7D;}
	.st15{fill:#4F5C70;}
	.st16{fill:none;stroke:#FFFFFF;stroke-width:1.0509137;stroke-linecap:round;stroke-linejoin:round;stroke-miterlimit:10;}
	.st17{fill:#E9F3FF;}
	.st18{fill:none;stroke:#404B7C;stroke-linecap:round;stroke-linejoin:round;stroke-miterlimit:10;}
	.st19{fill:#ECBDBB;}
	.st20{fill:#404B7C;}
	.st21{fill:none;stroke:#9AB3DA;stroke-width:0.8465766;stroke-linecap:round;stroke-linejoin:round;stroke-miterlimit:10;}
	.st22{fill:none;stroke:#404B7C;stroke-width:0.8465766;stroke-linecap:round;stroke-linejoin:round;stroke-miterlimit:10;}
	.st23{fill:none;stroke:#ECBDBB;stroke-width:0.726702;stroke-linecap:round;stroke-linejoin:round;stroke-miterlimit:10;}
	.st24{fill:none;stroke:#F68D88;stroke-width:0.8465766;stroke-linecap:round;stroke-linejoin:round;stroke-miterlimit:10;}
	.st25{fill:#FFFFFF;}
	.st26{fill:none;stroke:#9AB3DA;stroke-width:1.0509137;stroke-linecap:round;stroke-linejoin:round;stroke-miterlimit:10;}
	.st27{fill:none;stroke:#ECBDBB;stroke-width:1.0509137;stroke-linecap:round;stroke-linejoin:round;stroke-miterlimit:10;}
	.st28{fill:none;stroke:#404B7C;stroke-width:1.0509137;stroke-linecap:round;stroke-linejoin:round;stroke-miterlimit:10;}
	.st29{fill:none;stroke:#404B7C;stroke-width:0.75;stroke-linecap:round;stroke-linejoin:round;stroke-miterlimit:10;}
</style>
<g id="PLANTS">
	<g>
		<g>
			<path class="st0" d="M395.3106079,494.3637085c0,0,13.173645-4.0782776,31.1915588-7.1047363
				s31.8285828-14.3759766,33.158783-26.7301941c1.3302307-12.354187-12.8726196-20.8893433-33.4291382-8.3264771
				C406.3174133,464.3727417,395.3106079,494.3637085,395.3106079,494.3637085z"/>
			<path class="st1" d="M398.8475037,490.8111877c12.9785461-12.7677612,30.193634-26.8059082,49.9680481-35.7589722"/>
		</g>
		<g>
			<path class="st2" d="M368.3901672,494.3637085c0,0-8.1268921-29.6790771,9.3191223-62.3061218
				c17.4459839-32.6270447,37.2938843-28.7854919,44.1609802-19.7460938
				c6.8670959,9.0394287,2.5228271,28.4851379-12.046936,43.2952881S374.3665466,485.7141113,368.3901672,494.3637085z"/>
			<path class="st3" d="M411.0996704,418.4684143c0,0-24.2301331,16.5273743-40.765625,66.704834"/>
		</g>
		<g>
			<path class="st0" d="M210.8012543,494.3637085c0,0,5.5557709-7.5458069,14.1842346-16.4715576
				c8.6284485-8.9257202,11.5980988-20.7035522,7.3396454-27.9940186s-15.4671173-6.2246704-21.6348572,8.9387817
				C204.71521,473.5267334,210.8012543,494.3637085,210.8012543,494.3637085z"/>
		</g>
		<g>
			<path class="st2" d="M197.9870605,494.3637085c0,0,8.1268768-29.6790771-9.3191071-62.3061218
				s-37.2938995-28.7854919-44.1609955-19.7460938c-6.8670959,9.0394287-2.5228271,28.4851379,12.046936,43.2952881
				C171.1236725,470.4169312,192.0106812,485.7141113,197.9870605,494.3637085z"/>
			<path class="st3" d="M155.2775574,418.4684143c0,0,24.2301483,16.5273743,40.7656097,66.704834"/>
		</g>
	</g>
</g>
<g id="RUBIK_x27_S_CUBE">
	<g>
		<g>
			<g>
				<polygon class="st4" points="224.6406097,257.8898621 198.6118774,288.1795349 172.7350922,248.1121826 
					198.7638245,217.8220062 				"/>
				<polygon class="st5" points="295.2131348,167.9368744 321.0455322,207.9352875 285.8583984,217.7302094 260.026001,177.7317963 
									"/>
				<polygon class="st6" points="285.8562622,217.7313232 260.0299988,177.7353973 224.7715912,187.5419312 
					250.6513214,227.6126556 285.8990173,217.7954865 285.9629822,217.7016296 				"/>
				<polygon class="st6" points="356.3945007,198.1718597 330.5255127,158.1117554 295.2135925,167.9396362 
					321.0504761,207.9355011 320.4950256,208.0901337 321.146759,207.9890289 				"/>
				<polygon class="st7" points="250.6483154,227.6128387 224.6195831,257.9024963 198.7427979,217.8351593 
					224.7715302,187.5449829 				"/>
			</g>
			<polygon class="st7" points="250.5104675,297.9518127 224.4817352,328.2414551 198.60495,288.1741333 224.6336823,257.8839417 
							"/>
			<polygon class="st8" points="276.2979736,337.8807678 250.2692261,368.1709595 224.4817352,328.2414551 250.5104675,297.9518127 
							"/>
			<polygon class="st6" points="382.2685547,238.2378235 408.0565796,278.1667786 372.8078308,287.9784241 347.020874,248.0494537 
							"/>
			<polygon class="st4" points="321.0829773,207.9988098 356.3917847,198.1699677 382.2685547,238.2378235 347.020874,248.0494537 
				372.8078308,287.9784241 337.5601501,297.7900391 311.772644,257.861084 276.5181885,267.6747742 250.6413879,227.6069183 
				285.895874,217.7937317 311.7282715,257.7921448 346.9153748,247.9972382 			"/>
			<polygon class="st7" points="321.0829773,207.9988098 346.9153748,247.9972382 311.7282715,257.7921448 285.895874,217.7937317 
							"/>
			<polygon class="st8" points="276.5181885,267.6747742 250.4894409,297.964447 224.6126556,257.8970947 250.6413879,227.6069183 
							"/>
			<polygon class="st7" points="311.772644,257.861084 337.5601501,297.7900391 302.3056641,307.6037598 276.5181885,267.6747742 
							"/>
			<polygon class="st4" points="302.3056641,307.6037598 276.276947,337.8939209 250.4894409,297.964447 276.5181885,267.6747742 
							"/>
			<polygon class="st6" points="382.0488586,308.4438171 356.0195923,338.7340088 320.7719116,348.5456238 346.8001404,318.2554321 
							"/>
			<polygon class="st4" points="346.8001404,318.2554321 320.7719116,348.5456238 285.5237122,358.3572388 311.5524292,328.0670471 
							"/>
			<polygon class="st7" points="311.5524292,328.0670471 285.524231,358.3572388 250.2692261,368.1709595 276.2979736,337.8807678 
							"/>
			<polygon class="st8" points="408.0565796,278.1667786 382.0273132,308.4569702 346.7796326,318.2685852 372.8078308,287.9784241 
							"/>
			<polygon class="st7" points="372.8078308,287.9784241 346.7796326,318.2685852 311.5314026,328.0802307 337.5601501,297.7900391 
							"/>
			<polygon class="st8" points="337.5601501,297.7900391 311.5319214,328.0802307 276.276947,337.8939209 302.3056641,307.6037598 
							"/>
		</g>
		<g>
			<polygon class="st6" points="376.8395386,155.1474304 419.6253052,176.6766052 412.9425354,212.308609 370.1567688,190.7789154 
							"/>
			<polygon class="st9" points="370.1567688,190.7789154 343.6074219,220.4085541 350.2891541,184.7770691 376.8395386,155.1474304 
							"/>
			<polygon class="st10" points="412.9425354,212.308609 386.3931885,241.9382477 343.6074219,220.4085541 370.1567688,190.7789154 
							"/>
			<polygon class="st11" points="370.0711365,190.8034668 343.520752,220.4331055 300.6613464,198.866333 327.2112122,169.2366943 
							"/>
			<polygon class="st4" points="326.9255676,169.0252075 300.3757019,198.6548462 307.0574341,163.0233612 333.6078186,133.3937225 
							"/>
			<polygon class="st6" points="284.139801,147.496048 257.5899353,177.1256714 264.2721863,141.4936676 290.822052,111.8640366 			
				"/>
			<polygon class="st7" points="290.822052,111.8640366 333.6078186,133.3937225 326.9255676,169.0252075 284.139801,147.496048 			
				"/>
			<polygon class="st12" points="326.9255676,169.0252075 300.3757019,198.6548462 257.5899353,177.1256714 284.139801,147.496048 
							"/>
			<polygon class="st11" points="406.2608032,247.9401093 379.7104187,277.5697327 336.9246521,256.0405579 
				363.4750366,226.4109344 			"/>
			<polygon class="st4" points="363.4009094,226.3733368 336.8505249,256.0029602 343.520752,220.4331055 370.0711365,190.8034668 
							"/>
			<polygon class="st13" points="363.4009094,226.3733368 336.8505249,256.0029602 293.9906006,234.436203 320.5404663,204.8065643 
							"/>
			<polygon class="st8" points="327.2112122,169.2366943 370.0711365,190.8034668 363.4009094,226.3733368 320.5404663,204.8065643 
							"/>
			<polygon class="st14" points="320.5404663,204.8065643 293.9906006,234.436203 300.6613464,198.866333 327.2112122,169.2366943 
							"/>
			<polygon class="st11" points="320.2433472,204.6572266 293.6934814,234.2868652 250.9076996,212.7576904 277.45755,183.1280518 
							"/>
			<polygon class="st8" points="277.45755,183.1280518 250.9076996,212.7576904 257.5899353,177.1256714 284.139801,147.496048 			
				"/>
			<polygon class="st6" points="399.5769958,283.5788879 373.0266113,313.2085266 330.2413635,291.6793518 356.7912292,262.0497131 
							"/>
			<polygon class="st15" points="356.7912292,262.0497131 330.2413635,291.6793518 336.9246521,256.0405579 
				363.4750366,226.4109344 			"/>
			<polygon class="st7" points="363.4750366,226.4109344 406.2608032,247.9401093 399.5769958,283.5788879 356.7912292,262.0497131 
							"/>
			<polygon class="st7" points="356.7912292,262.0497131 330.2413635,291.6793518 287.0096741,269.9256592 313.5600586,240.2960205 
							"/>
			<polygon class="st4" points="313.5600586,240.2960205 287.0096741,269.9256592 293.6934814,234.2868652 320.2433472,204.6572266 
							"/>
			<path class="st4" d="M326.9255676,169.0252075l6.682251-35.631485l43.23172,21.7537079l-6.6827698,35.631485
				l42.7857666,21.5296936l-6.6817322,35.6315002l-42.7857666-21.5291748l-6.6838074,35.6387787l-43.2311707-21.7536926
				l6.6832886-35.6387939L277.45755,183.1280518l6.682251-35.6320038L326.9255676,169.0252075z M370.0711365,190.8034668
				l-42.8599243-21.5667725l-6.6707458,35.56987l42.8604431,21.5667725L370.0711365,190.8034668"/>
			<polygon class="st8" points="277.45755,183.1280518 320.2433472,204.6572266 313.5600586,240.2960205 270.774292,218.7663269 			
				"/>
			<polygon class="st6" points="313.5600586,240.2960205 287.0101929,269.9256592 244.224411,248.3959656 270.774292,218.7663269 
							"/>
			<polygon class="st7" points="270.774292,218.7663269 244.224411,248.3959656 250.9076996,212.7576904 277.45755,183.1280518 			
				"/>
		</g>
		<polyline class="st16" points="373.0266113,313.2085266 244.224411,248.3959656 256.4693604,183.1009521 		"/>
	</g>
</g>
<g id="ORNAMENT_13">
	<circle class="st17" cx="239.6402283" cy="414.7860413" r="9.267005"/>
</g>
<g id="ORNAMENT_12">
	<circle class="st17" cx="200.5074768" cy="402.8713379" r="2.6477158"/>
</g>
<g id="ORNAMENT_11">
	<circle class="st17" cx="434.8356934" cy="372.4296265" r="2.6477158"/>
</g>
<g id="ORNAMENT_10">
	<circle class="st17" cx="330.2413635" cy="85.8734207" r="6.4721942"/>
</g>
<g id="ORNAMENT_9">
	<circle class="st17" cx="437.4833984" cy="153.5917206" r="2.176343"/>
</g>
<g id="ORNAMENT_8">
	<circle class="st17" cx="303.8414612" cy="89.5189819" r="1.8294981"/>
</g>
<g id="ORNAMENT_7">
	<circle class="st17" cx="161.9997406" cy="151.3458557" r="5.1483364"/>
</g>
<g id="ORNAMENT_6">
	<g>
		<line class="st18" x1="206.0971222" y1="81.1437454" x2="206.0971222" y2="85.0608749"/>
		<line class="st18" x1="212.6428375" y1="87.6894836" x2="208.7257385" y2="87.6894836"/>
		<line class="st18" x1="206.0971222" y1="94.2352219" x2="206.0971222" y2="90.3180923"/>
		<line class="st18" x1="199.5513611" y1="87.6894836" x2="203.4685211" y2="87.6894836"/>
	</g>
</g>
<g id="ORNAMENT_5">
	<g>
		<line class="st18" x1="324.1026917" y1="379.4721985" x2="324.1026917" y2="382.2172852"/>
		<line class="st18" x1="328.6898804" y1="384.0593567" x2="325.9447937" y2="384.0593567"/>
		<line class="st18" x1="324.1026917" y1="388.6465454" x2="324.1026917" y2="385.9014587"/>
		<line class="st18" x1="319.5155334" y1="384.0593567" x2="322.2606201" y2="384.0593567"/>
	</g>
</g>
<g id="ORNAMENT_4">
	<g>
		<line class="st18" x1="151.2643738" y1="378.804718" x2="151.2643738" y2="382.7218628"/>
		<line class="st18" x1="157.8101501" y1="385.3504639" x2="153.8930054" y2="385.3504639"/>
		<line class="st18" x1="151.2643738" y1="391.8962097" x2="151.2643738" y2="387.9790649"/>
		<line class="st18" x1="144.7186584" y1="385.3504639" x2="148.6358032" y2="385.3504639"/>
	</g>
</g>
<g id="ORNAMENT_3">
	<g>
		<line class="st18" x1="441.1885986" y1="406.0326538" x2="441.1885986" y2="411.2709045"/>
		<line class="st18" x1="449.9420166" y1="414.7860413" x2="444.7037659" y2="414.7860413"/>
		<line class="st18" x1="441.1885986" y1="423.5394592" x2="441.1885986" y2="418.3012085"/>
		<line class="st18" x1="432.4352112" y1="414.7860413" x2="437.6734619" y2="414.7860413"/>
	</g>
</g>
<g id="ORNAMENT_2">
	<g>
		<line class="st18" x1="555.9846191" y1="142.3964691" x2="555.9846191" y2="144.6754456"/>
		<line class="st18" x1="559.7929077" y1="146.2047577" x2="557.513916" y2="146.2047577"/>
		<line class="st18" x1="555.9846191" y1="150.0130615" x2="555.9846191" y2="147.7340851"/>
		<line class="st18" x1="552.1763306" y1="146.2047577" x2="554.4553223" y2="146.2047577"/>
	</g>
</g>
<g id="ORNAMENT_1">
	<circle class="st17" cx="126.3475418" cy="116.1908875" r="2.2432036"/>
</g>
<g id="QUESTION_MARK_2">
	<g>
		<path class="st0" d="M182.6186676,342.3668213c-1.4783936-2.1885071-2.2956085-4.1838684-2.4530029-5.9880981
			c-0.1539917-1.8035583-0.0049133-3.8000793,0.4472351-5.9895325c0.4545898-1.9021606,0.698761-3.41745,0.7297821-4.5499573
			c0.0330505-1.1338806-0.3432465-2.2801514-1.1282654-3.4422302c-0.6714935-0.9940186-1.5830688-1.5752869-2.7319641-1.7396851
			c-1.152298-0.1651001-2.1410828,0.0340881-2.9691162,0.5934448c-1.2936554,0.8739014-2.041748,1.9836731-2.245636,3.3272705
			c-0.2025299,1.3456726-0.1171112,2.903656,0.2623596,4.678772l-7.5374756,1.1763
			c-0.4085083-1.3161316-0.6072388-2.8978577-0.5954437-4.7397156c0.0104065-1.8438721,0.4991913-3.8045044,1.464325-5.8805542
			c0.9631042-2.0746765,2.6060486-3.8980408,4.9281616-5.4666748c3.0185547-2.0391235,5.9797668-2.9279785,8.8842773-2.6699219
			c2.9058838,0.2600708,5.4118958,1.9490051,7.5180206,5.0667419c1.4565125,2.1560974,2.2597198,4.0783691,2.4082642,5.76474
			c0.1485291,1.6863708,0.0899506,3.1883545-0.1825409,4.5046082c-0.267746,1.3189392-0.4400635,2.1724243-0.516983,2.5605164
			c-0.3428345,1.77948-0.4270935,3.4049377-0.2534332,4.8797607c0.1750488,1.4768066,0.8468628,3.0780029,2.0107117,4.8008728
			l0.7070618,1.0466614l-6.9643402,4.7046204L182.6186676,342.3668213z M191.3832855,354.1628723
			c-1.200882-0.1322632-2.1572571-0.727478-2.8752594-1.7903442c-0.6933746-1.0264282-0.8886414-2.1534729-0.5796661-3.3764343
			c0.3089905-1.2229614,1.0435028-2.2262878,2.2055664-3.0112915c1.1600494-0.7836304,2.3508453-1.0809326,3.56633-0.8877869
			c1.217514,0.1917725,2.173996,0.8045959,2.8673706,1.8310242c0.7180023,1.0628967,0.9293518,2.161377,0.6381683,3.3015747
			c-0.2945862,1.1395264-1.0374146,2.1130676-2.2318726,2.9199524S192.5827942,354.2930908,191.3832855,354.1628723z"/>
	</g>
</g>
<g id="QUESTION_MARK_1">
	<g>
		<path class="st4" d="M379.4863892,120.7287521c1.1633606-2.3710251,2.4880066-4.0723801,3.9749756-5.1062469
			c1.4880981-1.0305939,3.294342-1.8942184,5.4186707-2.5908737c1.8763123-0.551651,3.3123474-1.0934448,4.3102722-1.6297684
			c1.0001526-0.5352478,1.8074341-1.4318085,2.4251709-2.6908035c0.5284119-1.0769424,0.5793152-2.1568527,0.1505737-3.2353592
			c-0.4298706-1.0817719-1.0944519-1.8405457-1.9915161-2.2807159c-1.4015808-0.6876907-2.7364197-0.7847595-4.003479-0.293396
			c-1.2681274,0.4935532-2.577301,1.3425217-3.9285583,2.5545654l-4.7692566-5.9541168
			c0.9386597-1.0089951,2.2120361-1.9680557,3.8158264-2.8738632c1.6048279-0.9080124,3.5488892-1.4590759,5.8299561-1.6542816
			c2.2788696-0.1962891,4.6778564,0.3222122,7.193634,1.5566101c3.2702942,1.6046066,5.5141602,3.7315521,6.7348328,6.3797073
			c1.2196045,2.6503601,1.0007324,5.6644211-0.6566162,9.0421982c-1.1461487,2.3359375-2.4143372,3.9887848-3.8034668,4.9563599
			c-1.3891602,0.9675751-2.7213135,1.6637497-3.9987793,2.0819778c-1.2774048,0.4236908-2.1035461,0.6986771-2.4784851,0.8249588
			c-1.714325,0.5875931-3.1663818,1.3229065-4.3594971,2.2070618c-1.1941528,0.8863525-2.2491455,2.2655334-3.1650085,4.1320801
			l-0.556366,1.1339722l-7.5451965-3.7021179L379.4863892,120.7287521z M373.6117249,134.199234
			c-0.4825134-1.107605-0.441803-2.2333221,0.1231995-3.3848419c0.5456543-1.11203,1.4263-1.84198,2.6409607-2.1821594
			s2.4503784-0.2019348,3.7093811,0.415802c1.2567749,0.6166534,2.1069336,1.5018768,2.5438843,2.6524353
			c0.4391479,1.1516418,0.3831787,2.2862244-0.1624451,3.3982544c-0.5650024,1.1515198-1.4128723,1.8812103-2.546875,2.1956635
			c-1.1351013,0.3111725-2.3491516,0.1509094-3.6432495-0.4840393
			C374.9825134,136.1753845,374.0953064,135.3046417,373.6117249,134.199234z"/>
	</g>
</g>
<g id="WOMAN_BACK_SHIRT">
	<path class="st0" d="M26.9499168,313.0759888c0,0,23.8453827,25.2047119,60.4301338,22.6758118
		s46.7846527-22.6758118,46.7846527-22.6758118l-8.8476791-40.9681702l-74.4760361,9.4760742L26.9499168,313.0759888z"/>
</g>
<g id="WOMAN_RIGHT_LEG_1_">
	<g>
		<g>
			<path class="st19" d="M125.6736679,453.2278748l1.0675812,14.5791016c0,0-2.8543243,1.3314819-6.773468-0.2466125
				l-2.7004929-14.3667603L125.6736679,453.2278748z"/>
			<g>
				<path class="st20" d="M114.2281265,479.4120178c-0.5127258,3.5350647-0.2571487,7.9663391,0.5466232,13.0374756
					l2.9477844,0.1243591c0,0,1.6825333-7.8810425,3.3478012-11.3543701
					C122.7355957,477.7461548,115.79142,476.3562927,114.2281265,479.4120178z"/>
				<path class="st2" d="M118.8572159,465.6860657c0,0,3.1328964,1.73526,8.7590561,0.3696289
					c0,0,8.4490814,15.7122192,11.447998,18.6230469c2.9989166,2.9107971,9.6929169,6.2306824,11.997818,7.5935364
					c2.3048859,1.3628235-15.7576599,1.5286865-19.9367523,0.5929565c-4.1791-0.9356995-7.4924927-6.3909302-10.9089661-9.4037476
					c-3.4164658-3.0128174-5.9882431-4.0494385-5.9882431-4.0494385S115.4851074,471.6185303,118.8572159,465.6860657z"/>
			</g>
		</g>
		<g>
			<path class="st20" d="M118.2164612,271.370575c0,0,8.7850494,27.9160156,9.413475,39.8079224
				c0.6284256,11.8919373-0.0207291,62.8913879-0.0207291,62.8913879l0.974411,80.0903931
				c0,0-9.2131882,2.8609619-13.8881073,0.9894409c0,0-3.9692688-21.9416199-6.8290329-33.3192139
				c-2.8597641-11.3775635-2.6466217-22.6056824-2.715271-31.8911743c0,0-10.8748016-37.4286499-16.3223724-70.9095764
				s-3.1025391-52.597168,9.8114929-55.3822021S118.2164612,271.370575,118.2164612,271.370575z"/>
			<path class="st21" d="M118.7253189,452.5985413c0,0-6.6319504-29.0986633-7.2878952-36.1511536
				s-0.9402847-26.8793335-0.9402847-26.8793335l-12.7151031-66.1704407"/>
		</g>
	</g>
</g>
<g id="WOMAN_LEFT_LEG">
	<g>
		<g>
			<path class="st19" d="M48.3339119,453.9816895l-1.6022453,14.5839233c0,0-3.0346794,2.0231323-6.7437325,0l0.0006065-15.5954895
				L48.3339119,453.9816895z"/>
			<g>
				<path class="st20" d="M34.9301338,480.451416c-0.3632202,3.5535278,0.0789642,7.9700928,1.0958366,13.0028381
					l4.7360992-0.0000305c0,0-0.4369507-7.9449768,1.0803909-11.4854431
					C43.3597984,478.4283142,36.3631973,477.3325195,34.9301338,480.451416z"/>
				<path class="st2" d="M38.9763718,466.542511c0,0,3.2032738,1.6016235,8.7668571,0c0,0,7.88591,15.34198,11.0048866,18.1237793
					c3.1189766,2.7817688,5.2798386,5.8164673,7.6401443,7.0809021c2.3603058,1.2644653-15.679184,2.1917114-19.8940163,1.4330444
					s-1.8699951-6.0693359-5.4104538-8.9354248s-6.153656-3.7933655-6.153656-3.7933655
					S35.8573952,472.6118469,38.9763718,466.542511z"/>
			</g>
		</g>
		<g>
			<path class="st20" d="M98.9511795,292.5288391l-3.6202469,29.618103c0,0-22.2770844,55.9922485-26.9059296,68.1782227
				c-4.6288528,12.1859741-16.0906029,65.230835-16.0906029,65.230835s-2.8121033,2.3522034-8.7062454,2.0726013
				s-7.1077499-3.1603394-7.1077499-3.1603394s0.6462135-40.3084412,2.4005356-50.6053772
				c1.7543182-10.296936,6.5389442-25.7667847,7.1390457-33.0803833c0.6001053-7.3135681,2.000145-47.5018921,4.5592422-64.0900269
				c2.5591011-16.5881042,11.6095619-41.9284973,29.6661797-40.9724121S100.3898621,280.758667,98.9511795,292.5288391z"/>
			<path class="st21" d="M60.0991936,291.8673401c0,0-6.2538567,50.0006409-6.709198,59.5996704
				s-2.5381584,21.4838257-3.6917305,28.0116272c-1.1535683,6.5278015-4.9996643,23.5612183-6.1119995,36.335968
				c-1.112339,12.7747192-2.6074715,37.1773376-2.6074715,37.1773376"/>
			<g>
				<path class="st21" d="M104.3005981,290.5040283L101.8349838,314.2612
					c-0.2119675,2.0423584-1.2603378,3.9057312-2.8958969,5.1471252l-3.6081543,2.7386169"/>
				<line class="st21" x1="99.0260696" y1="290.9500427" x2="95.3309326" y2="322.1469421"/>
			</g>
		</g>
	</g>
</g>
<g id="WOMAN_UPPER_ARM">
	<g>
		<path class="st2" d="M110.5861969,171.3736115c0,0,5.9082184-8.6240997,25.824646,38.260498l3.4474945,8.9934692
			c1.0296631,2.6860809,1.1244965,5.697876-0.0063019,8.3429871c-1.7563782,4.1085205-5.7994843,6.4908752-11.2097931,6.4014893
			c-0.4350433-0.0071869-0.8347244-0.0406342-1.1890259-0.1050568c-4.2516708-0.7731171-8.7019348-8.0386963-15.2207184-27.0337372
			S110.5861969,171.3736115,110.5861969,171.3736115z"/>
	</g>
</g>
<g id="WOMAN_BODY">
	<g>
		<g>
			<path class="st0" d="M87.3800507,173.1013641l-18.460968,16.0585175c0,0-18.9667511,93.8222046-18.2080803,93.8222046
				c0.758667,0,25.1367149,5.5377808,47.8805122,3.5404663c23.3544617-2.0509644,27.7560272-6.2919006,27.7560272-6.2919006
				l-12.1611481-64.5173187l-2.4024506-29.8410187L87.3800507,173.1013641z"/>
			<path class="st22" d="M61.5852737,281.1275635c0,0,37.5344467,7.3641663,60.9689178-3.2572327"/>
		</g>
		<path class="st2" d="M87.3800507,247.071701c-2.1950607,38.2672882-16.6907349,69.7976532-16.6907349,69.7976532
			c-14.3337936,8.0924683-43.739399-3.7933655-43.739399-3.7933655s24.2852707-49.3008423,28.5584946-71.3992767
			c4.5907822-23.7406616,2.8385353-71.3620453,2.8385353-71.3620453c4.8781815-4.7063446,16.349144,0.6448975,23.9955597,2.0735321
			c-0.4552155,4.7239685-2.1344376,24.2774506-0.4450912,38.267334
			C83.839592,226.6684875,87.3800507,247.071701,87.3800507,247.071701z"/>
		<g>
			<path class="st2" d="M91.8056335,172.3881989c0,0,9.2730637-0.4629822,19.6382065-1.3798828l1.8574448,18.6573486
				c0,0,5.3106842,17.702301,5.5635757,20.8634338c0.2528915,3.1611176-2.4024506,14.1618347-2.4024506,14.1618347
				s15.9320755,61.5787201,17.7022934,88.3850555c0,0-9.4833679-0.5057678-19.3460846-2.9082336
				c0,0,0.0421524-22.9708252-0.8008118-39.9987488c-0.8429718-17.0279388-3.5404663-28.4922943-3.5404663-28.4922943
				s-9.6098175-40.1252136-11.8858261-48.5548859C96.3154984,184.6921692,91.8056335,172.3881989,91.8056335,172.3881989z"/>
			<path class="st23" d="M111.1897202,173.1013641l2.1115646,16.5643005c0,0,5.3106842,17.702301,5.5635757,20.8634338
				c0.2528915,3.1611176-2.4024506,14.1618347-2.4024506,14.1618347s2.4226913,9.3638916,5.4835663,22.3782806"/>
		</g>
		<g>
			<path class="st2" d="M85.525528,169.0972748C80.4296112,169.8948975,76,181.2360077,74.1033249,191.2673035l5.7111053,5.2263947
				l-5.7111053,10.1156006c0,0,8.5561142,21.4113617,13.2767258,40.4624023c0,0-2.1917114-31.0211792-3.709053-48.1333923
				c0.2950439-17.5758667,8.3875198-18.2157135,14.920517-1.6859436
				c6.3222504,18.2923889,11.8858261,44.4243469,11.8858261,44.4243469s0.6743774-26.131958-0.6743698-40.2095032
				l-8.4296722-6.4908447l2.5289001-6.5751495C103.9021988,188.4012146,95.2196426,167.5799408,85.525528,169.0972748z"/>
			<path class="st23" d="M110.4773407,241.676712c0,0,0.6743774-26.131958-0.6743698-40.2095032l-8.4296722-6.4908447
				l2.5289001-6.5751495c0,0-2.9412994-7.053421-7.3114319-12.6504669"/>
			<path class="st23" d="M79.5012894,174.9745941c-2.396019,4.3773651-4.3120956,10.5496979-5.3979645,16.2927094
				l5.7111053,5.2263947l-5.7111053,10.1156006c0,0,6.5325089,16.3473663,11.3308105,33.1834869"/>
		</g>
	</g>
</g>
<g id="WOMAN_HAIR">
	<g>
		<path class="st20" d="M75.4942245,139.1508789c0,0-3.6669083-7.0176849-9.4833755-8.4718018
			c-5.8164711-1.4541321-9.6730461,4.5520172-10.4317131,11.8226013
			c-0.7586708,7.2705841,4.6601715,13.4328156,12.7077217,6.5119171
			C74.609108,143.5764618,75.4942245,139.1508789,75.4942245,139.1508789z"/>
		<path class="st20" d="M73.9768829,139.2773285c0,0-9.2937088,5.0578003-8.2821503,13.5296173
			c1.0115662,8.471817,15.8056259,15.0469513,23.7716675,10.2420502c7.9660339-4.8049164,6.006134-11.696167,6.006134-11.696167
			s7.0177002-0.6322174,7.1441422-7.3970337c0.1264496-6.764801-3.3507919-7.9660339-6.9544754-7.2705841
			c0,0,1.3276749-8.4085999-6.4486923-9.1672668S75.5574493,130.9319611,73.9768829,139.2773285z"/>
		<path class="st21" d="M73.9768829,139.2773285c-0.003334,0.0018158-6.8318253,3.7193909-8.1428833,10.1175385"/>
	</g>
</g>
<g id="WOMAN_NECK">
	<g>
		<path class="st19" d="M98.5881577,197.2523651c-1.2644501,4.6329041-4.885849,6.6560211-4.885849,6.6560211
			c-5.3916397-0.4147034-10.0346603-4.9667358-10.0346603-4.9667358v-17.7933655
			c-0.0606918-4.8453522-1.1835709-16.508606-1.6084061-20.7571716c-0.1011353-0.9913635-0.1618271-1.5780334-0.1618271-1.5780334
			l8.3453751,1.780365c0,0,0.1820679,3.9349213,0.5259628,8.3149872c0.3338318,4.1676331,0.8396149,8.7500153,1.4971542,10.7225189
			C93.6213608,183.6771851,98.5881577,197.2523651,98.5881577,197.2523651z"/>
		<path class="st20" d="M90.7687531,168.908432c-4.8049088-1.4869537-7.3742447-5.3713837-8.7095108-8.5173187
			c-0.1011353-0.9913635-0.1618271-1.5780334-0.1618271-1.5780334l8.3453751,1.780365
			C90.2427902,160.5934448,90.4248581,164.5283661,90.7687531,168.908432z"/>
	</g>
</g>
<g id="WOMAN_HEAD">
	<g>
		<path class="st19" d="M93.9551926,143.5132446c0,0,3.6669083,5.8796844,3.856575,13.5296173
			c0.1896667,7.6499176-5.8796921,8.4718018-12.0122757,5.8796844s-9.9259338-11.3800507-9.9259338-11.3800507
			s-2.7817917-7.5867004,2.3392334-11.0639343S90.2250671,137.9496613,93.9551926,143.5132446z"/>
		<path class="st20" d="M78.9714584,142.881012c0,0,8.1557083,6.4487,18.2713089,2.2127838
			c0,0-7.4602585-14.0353851-19.3460922-7.2073669c-11.8858261,6.8280334-6.1958008,16.4378662,0.2528915,17.9552002
			C78.1495667,155.841629,81.6900253,151.6689453,78.9714584,142.881012z"/>
		<g>
			<g>
				<path class="st19" d="M82.3222504,159.065979l-2.9925308-4.2991333c0,0-3.1611252-2.8660889-6.153656-1.0115662
					C70.1835327,155.6098175,73.3446579,163.9973297,82.3222504,159.065979z"/>
				<path class="st22" d="M74.1033249,155.6203461c0,0,3.4456329-0.3477173,6.2590332,1.8650665"/>
				<path class="st22" d="M76.7270584,158.7024384c0,0-0.3008118-1.3251953-0.0634766-2.8911896"/>
			</g>
			<path class="st24" d="M79.4350891,158.8130798c1.361763,0,2.465683,1.8681793,2.465683,4.1726837
				c0,2.3045197-1.10392,4.172699-2.465683,4.172699c-1.3617554,0-2.4656754-1.8681793-2.4656754-4.172699
				c0-0.8892212,0.1643677-1.7134857,0.4444885-2.3905182"/>
		</g>
	</g>
</g>
<g id="WOMAN_FACE">
	<g>
		<path class="st20" d="M81.2281723,148.6502075c0,0,0.4832993-3.3722382,3.0479126-2.9873657
			c0,0-0.1566238-0.6786194,0.4145966-0.8822021c0.5712204-0.203598,1.2199936,1.5796051,1.2199936,1.5796051
			S83.1959,147.0097198,81.2281723,148.6502075z"/>
		<path class="st20" d="M95.0768356,148.9589844c0,0-1.1355362-2.4508667-2.5726547-1.0716553
			c0,0-0.2226562-0.5311432-0.6130295-0.4712372c-0.6751862,0.1036072-0.2607956,1.3977051-0.2607956,1.3977051
			C92.9522476,149.2177734,93.862114,149.1463013,95.0768356,148.9589844z"/>
		<g>
			
				<ellipse transform="matrix(0.9594598 -0.2818454 0.2818454 0.9594598 -39.5026398 30.4515057)" class="st20" cx="86.1019211" cy="152.5418701" rx="1.2790298" ry="1.581346"/>
			<circle class="st25" cx="86.2143326" cy="151.924118" r="0.3401057"/>
		</g>
		<g>
			<path class="st20" d="M93.7763748,151.930542c-0.6737289,0.203186-1.4223328-0.3101044-1.6682739-1.1549225
				c-0.1497345-0.502655-0.0855713-1.0052338,0.1389618-1.368866c0.4492035,0.1604309,1.1870956,0.3101654,2.1174774,0.2138977
				c0.0748672,0.1283264,0.1497345,0.2780457,0.192482,0.4384308
				C94.8029709,150.8932495,94.4501114,151.7380524,93.7763748,151.930542z"/>
			<circle class="st25" cx="93.6016464" cy="150.3387909" r="0.3401057"/>
		</g>
		<path class="st22" d="M90.0434494,151.0408325l0.8942261,2.9609222c0,0,2.1288071-0.6069336,2.009758,0.7424164
			c-0.1169434,1.3254852-1.8932343,1.3984375-1.8932343,1.3984375"/>
		<path class="st22" d="M87.0061111,159.0164185c0,0,2.7993851-1.1911926,5.7236862,1.4744415"/>
	</g>
</g>
<g id="WOMAN_RIGHT_LEG">
	<g>
		<g>
			<g>
				<path class="st2" d="M72.5382233,174.1468964c-1.3490906-4.4174042-5.985405-7.0797119-10.4156494-5.773407
					c-4.5706444,1.3477173-8.0856133,4.8238068-7.2760811,14.8172913
					c1.1262703,13.9035339,5.2365837,55.5442352,8.9150887,59.3347778
					c3.6785049,3.7905579,11.6888504,1.3526764,11.6888504,1.3526764s8.7765884-11.7333527,9.2026978-15.2249146
					c0.4261169-3.4915771-1.5372391-5.3191376-1.5372391-5.3191376l-3.9579468-0.2884216
					c0,0-1.8558426-26.4767456-3.7876587-37.2155304C74.5511932,181.2769775,73.4895172,177.2617645,72.5382233,174.1468964z"/>
				<path class="st23" d="M58.3469467,216.6505432c1.6281776,12.621933,3.5753822,23.9797516,5.4146347,25.8750153
					c3.6785049,3.7905579,11.6888504,1.3526764,11.6888504,1.3526764s8.7765884-11.7333527,9.2026978-15.2249146
					c0.4261169-3.4915771-1.5372391-5.3191376-1.5372391-5.3191376l-3.9579468-0.2884216
					c0,0-1.8558426-26.4767456-3.7876587-37.2155304c-0.8190918-4.5532532-1.8807678-8.5684662-2.8320618-11.6833344"/>
			</g>
			<path class="st20" d="M79.4943924,220.8710175l8.973877-2.934967c0,0,4.4408722,3.1327972,4.1258545,10.8759766
				c-0.3150177,7.7431946-4.7612915,15.3599701-4.7612915,15.3599701s-10.2645264,4.240097-10.2183228,4.0561371
				c0.046196-0.1839447-4.0256424-4.506897-4.859993-12.8646698S79.4943924,220.8710175,79.4943924,220.8710175z"/>
		</g>
		<g>
			<path class="st19" d="M87.6296539,221.540863c-6.8077698,11.2473145,0.0517883,18.6996613,0.0517883,18.6996613
				c6.6690369-3.7138367,34.2678909-18.4947357,36.0925064-19.4434814c0.078331-0.040741,0.676918-8.2607574,0.676918-8.2607574
				L87.6296539,221.540863z"/>
		</g>
	</g>
</g>
<g id="WOMANLEFT_ARM">
	<g>
		<path class="st20" d="M118.8767624,211.9211578c-3.5918808,6.5851288-0.3811722,22.4893646,11.6258621,22.1081848
			c12.0070343-0.3811646,14.2940826-15.8187866,8.5764465-23.4422913
			C133.3614349,202.9635315,122.3073425,205.6317596,118.8767624,211.9211578z"/>
		<path class="st19" d="M79.7956009,166.7674713c-0.1274567-0.384491,0.0038223-0.8052979,0.3292542-1.0464783
			c1.1828232-0.8766174,3.9417572-2.8951721,4.6020432-3.1470337c0.8466949-0.3229675,10.9264221,1.6453247,10.9264221,1.6453247
			l1.8964386-5.9920502c0.1735458-0.5483398,0.6934586-0.9120178,1.2680664-0.8869934h0.0000076
			c0.7018433,0.0305634,1.2460327,0.6243134,1.2154617,1.3261566l-0.8626556,6.8980255l1.4256744,8.4058533
			c0,0,30.3467407,33.29776,31.2016144,34.3245544c0.8548889,1.0267792,3.7721405,8.9946747,1.0620575,12.3416748
			c-5.5973587,6.9128571-13.6917572-0.7313232-14.9327011-2.7004547S95.805191,177.2574158,95.805191,177.2574158
			l-5.8202438-0.6231537l-0.6894913,0.3396454c0,0-0.0308838,0.7091827-0.6450119,0.86763
			c-0.6141281,0.1584625-2.1190567-0.1432343-2.2404938-1.2280273c-0.1214294-1.0848083,0.9351273-2.1068726,0.9351273-2.1068726
			s-1.9276047,0.8829193-2.4648743,0.8257904s-1.2765121-0.8989563-1.1593094-2.0408478
			c0.1171951-1.1418762,2.8183212-2.7447205,2.8183212-2.7447205s-2.5649185,0.7991333-3.1680603,0.7053986
			c-0.6031494-0.0937347-1.1579056-1.2986145-1.1227112-2.10672s4.6268005-2.699707,4.6268005-2.699707l-2.1393051-0.4530029
			l-3.6803894,1.3410492C80.5507355,167.5507355,79.968483,167.2889862,79.7956009,166.7674713L79.7956009,166.7674713z"/>
		<path class="st22" d="M91.6458282,176.812088l-1.660881-0.1778259l-0.6894913,0.3396454
			c0,0-0.0308838,0.7091827-0.6450119,0.86763c-0.6141281,0.1584625-2.1190567-0.1432343-2.2404938-1.2280273
			c-0.1214294-1.0848083,0.9351273-2.1068726,0.9351273-2.1068726s-1.9276047,0.8829193-2.4648743,0.8257904
			s-1.2765121-0.8989563-1.1593094-2.0408478c0.1171951-1.1418762,2.8183212-2.7447205,2.8183212-2.7447205
			s-2.5649185,0.7991333-3.1680603,0.7053986c-0.6031494-0.0937347-1.1579056-1.2986145-1.1227112-2.10672
			s4.6268005-2.699707,4.6268005-2.699707l-2.1393051-0.4530029l-3.6803894,1.3410492
			c-0.5048141,0.2168579-1.0870667-0.0448914-1.2599487-0.5664062l0,0c-0.1274567-0.384491,0.0038223-0.8052979,0.3292542-1.0464783
			c1.1828232-0.8766174,3.9417572-2.8951721,4.6020432-3.1470337c0.8466949-0.3229675,10.9264221,1.6453247,10.9264221,1.6453247
			l1.8964386-5.9920502c0.0558014-0.1763306,0.1474304-0.3335571,0.2651672-0.46492"/>
	</g>
</g>
<g id="MAN_RIGHT_LEG">
	<g>
		<g>
			<g>
				<g>
					<path class="st19" d="M477.394165,452.717804c0,0,1.2921143,9.2634583,1.6242676,11.8593445
						c0.5262756,4.3028564,1.2403564,10.046814,1.2331543,10.1982727c-0.0112305,0.2366028,4.5812378,1.8013,4.5812378,1.8013
						l4.9733276-1.6611633l-0.1722717-7.5679626l-0.2772217-14.0299988L477.394165,452.717804z"/>
					<path class="st20" d="M477.394165,452.717804c0,0,1.2921143,9.2634583,1.6242676,11.8593445
						c2.464447,0.6385193,6.9235229,1.8175659,10.615448,2.7704468l-0.2772217-14.0299988L477.394165,452.717804z"/>
				</g>
				<g>
					<path class="st20" d="M490.6690063,470.6740723c0,0-6.9480591,2.0528564-12.632843,0.3158264
						c0,0-9.9483643,7.1849365-16.264801,9.4746399s-12.3170166,3.9477539-12.3170166,13.8961182h45.399292
						C494.8536377,494.3606567,495.7221375,478.6800842,490.6690063,470.6740723z"/>
					<path class="st26" d="M471.028656,481.5224915c0,0,5.5663757-3.256897,10.6589661-7.7573547"/>
					<path class="st2" d="M471.4433899,488.2021484c0,0-2.2502441-7.2243958-7.2244263-9.7114868
						c0,0-8.4087219,2.8423767-11.961731,4.8557434c-3.5529785,2.0133667-3.7898254,6.3953857-3.7898254,11.0142517h47.2547302
						v-6.1585083H471.4433899z"/>
				</g>
			</g>
			<path class="st2" d="M475.0704041,460.0770874l17.814209,0.0035706c0,0,3.7754211-78.55896,3.8149414-79.3069458
				c0.0395203-0.7480164,12.2851257-76.3591919,12.2851257-76.3591919s-8.2081299-31.9122925-9.9363708-40.5042419
				c-2.6534119-13.1916046-30.8932495-28.5850677-33.4678345,10.2080688s4.1357422,107.7050171,3.9689026,115.1220093
				S475.0704041,460.0770874,475.0704041,460.0770874z"/>
			
				<ellipse transform="matrix(0.9993889 -0.0349557 0.0349557 0.9993889 -13.1443157 16.9666996)" class="st27" cx="478.6562805" cy="384.3959351" rx="7.7573576" ry="11.9820013"/>
			<polyline class="st27" points="500.3084106,314.8322754 490.857605,379.1899109 488.4066467,455.8686523 			"/>
		</g>
	</g>
</g>
<g id="MAN_LEFT_LEG">
	<g>
		<g>
			<g>
				<path class="st19" d="M560.4931641,456.1756592c0,0,0.2203979,2.0756531,0.4931641,4.6783752
					c0.475769,4.3087158,1.0996704,10.0631409,1.1414795,10.2088928c0.0652466,0.2276917-4.0452881,2.8050537-4.0452881,2.8050537
					l-5.2218628-0.4747925l-1.5700684-7.4052734l-1.4498901-6.8483582L560.4931641,456.1756592z"/>
				<g>
					<path class="st20" d="M539.7815552,494.3637085h27.515686c0,0,0.1442261-2.5694885-0.0270996-6.1576843
						c-0.234436-5.2741089-1.1449585-12.7661438-4.156189-17.5353699c0,0-6.9420166,2.0555725-12.6308594,0.3155518
						c0,0-4.156189,7.9427795-8.1501465,13.6405945c-0.0270386,0.045105-0.0631104,0.0901794-0.0901489,0.1352539
						C540.2593994,487.5749207,539.772522,491.3074036,539.7815552,494.3637085z"/>
					<path class="st26" d="M550.7874146,485.1223755c0,0,3.8114014-5.2023926,6.6934814-11.3572388"/>
					<path class="st2" d="M535.8236694,494.3637085h32.3480225v-6.1576843h-11.2874756c0,0,0.0630493-9.7188721-9.8180542-9.7188721
						S535.8236694,486.8536987,535.8236694,494.3637085z"/>
				</g>
				<path class="st20" d="M560.4931641,456.1756592c0,0,0.2203979,2.0756531,0.4931641,4.6783752
					c-2.2520142,1.1873474-6.321228,3.3587341-9.6957397,5.1338806l-1.4498901-6.8483582L560.4931641,456.1756592z"/>
			</g>
		</g>
		<g>
			<path class="st2" d="M546.6775513,278.1245422c0,0,6.5013428,91.7687073,7.548645,104.6065369
				c1.0588379,12.8444214,9.680481,74.7629395,9.680481,74.7629395s-7.4731445,2.8806763-17.8669434,4.1343079
				c-0.2609863-0.9107971-18.4978638-64.8442688-19.8493652-70.6957703
				c-0.7666016-3.3285522-17.2951965-71.516449-17.3578186-71.7350464
				c-0.4358521-1.5209656-13.2099609-37.0182495-4.1617126-54.6611328
				C513.7190552,246.8934631,540.5810547,252.2748413,546.6775513,278.1245422z"/>
			<path class="st27" d="M501.4511414,282.1873169l1.2064209,18.6105652
				c0.1647949,2.5422668,1.7520752,4.7731323,4.0998535,5.762207l2.0503235,0.863739l-0.9017639-26.4083252"/>
			
				<ellipse transform="matrix(0.986596 -0.1631821 0.1631821 0.986596 -56.9864464 92.8130188)" class="st27" cx="536.4644775" cy="393.2860107" rx="7.7573576" ry="11.9820013"/>
			<path class="st27" d="M538.477478,282.7817688c0,0,10.0603027,104.2937012,11.8873291,110.669342
				c1.8269653,6.3756409,9.0460205,60.4032288,9.0460205,60.4032288"/>
		</g>
	</g>
</g>
<g id="MAN_RIGHT_UPPER_ARM">
	<g>
		<g>
			<path class="st0" d="M491.344696,188.7284851c-1.9677429,5.3577576-4.5877991,11.2395172-7.4324036,16.9180756
				c-2.9088135,5.8389893-6.0421753,11.4747314-8.9189148,16.1587524c-0.5383911,0.8824463-1.6939392,2.8892517-2.8851013,4.9854889
				c-0.9762573,1.7180786-2.5669861,3.0058594-4.4510193,3.6018982l0,0
				c-6.3308716,2.010498-13.0788574-1.5613556-14.9717407-7.9350586v-0.0000153
				c-1.0307312-3.4472809-0.9008789-7.1338959,0.3664856-10.5013733
				c6.7320862-17.8878937,15.1846619-39.2869873,18.5406799-43.3433533
				c3.9995728-4.8550873,11.4212952-4.2134705,16.3513184,0.4063873
				C492.1895142,172.9868164,494.5742798,179.8844604,491.344696,188.7284851z"/>
		</g>
	</g>
</g>
<g id="MAN_BODY">
	<g>
		<g>
			<g>
				<path class="st0" d="M538.3786621,244.6565704c-0.3662109-3.662262,1.7558594-47.2776337,0.0988159-68.3901672
					c-1.0838013-13.8092651-9.5218506-13.0707703-15.0245361-12.4145966
					c-7.4760132,0.8914032-17.631073,2.1339874-25.2998352,3.1917114
					c-4.5749512,0.0251923-11.6593933-0.026825-16.4797668-1.4693298
					c-5.1802673-1.5502014-10.4447327,1.9802704-11.1192627,7.3452759
					c-3.2185974,25.5997009,2.9495544,60.8687897,1.5021667,72.4477081
					c-1.6580505,13.2644806-13.9750977,43.1095734-13.9750977,43.1095734
					c12.2138672,9.1119995,24.7608337,12.9976807,36.5527954,13.8413696
					c2.7056274-4.5614929,12.3204651-20.2367249,12.3204651-20.2367249l14.8214722,17.2914734
					c17.9725342-4.9967957,30.3410034-14.2122192,30.3410034-14.2122192S538.852417,249.3939056,538.3786621,244.6565704z"/>
			</g>
			<g>
				<path class="st28" d="M470.5540771,172.9194641c-1.6738586,13.3133698-0.80896,29.2419434,0.2032166,43.0934906"/>
			</g>
			<polygon class="st20" points="474.4248962,265.5007935 472.6089172,271.8961792 490.6896973,276.6334839 
				492.5846252,270.1591492 			"/>
			<polygon class="st20" points="534.1575317,263.7525635 536.3577271,270.026123 518.59729,275.8504028 516.3134766,269.5027771 
							"/>
			<path class="st28" d="M505.9280701,281.0155029l-4.7373352-4.9149475c0,0,3.3161316-18.4163208,3.553009-48.7351685"/>
		</g>
		<path class="st20" d="M487.4955444,166.6460724c0,0-7.4925232,10.6221924-10.3008423,21.102478l8.2839355,3.5342712
			l-5.3689575,10.4221039l24.6340637,24.4761353l18.3175964-26.21315l-5.7121582-10.4723206l6.2680054-3.0653381
			c0,0-8.6367798-18.9435272-12.2437439-21.1781006C505.0990295,161.3650665,497.9176636,160.9612885,487.4955444,166.6460724z"/>
		<g>
			<path class="st25" d="M498.3806458,168.4783478c-3.4384155,0.0923157-4.7477417-0.4218445-9.7506714-0.9459534
				c-0.8934937,15.3582458,5.4820862,40.7027893,15.7980042,53.753418c0,0,6.3101807-32.421936,6.3101807-53.9440155
				C504.4978943,167.8992157,502.4963074,167.9270172,498.3806458,168.4783478z"/>
			<g>
				<path class="st20" d="M508.4065857,204.7756348c-0.7339478-4.9165802-2.8510437-17.9415436-5.8735046-26.7573395
					l-3.5333557-0.7500305l-2.4674072,1.5396271c0,0-1.8464661,11.7497253-1.5598755,26.0736847
					c2.8289795,6.1888733,6.0339355,12.0757141,9.4555359,16.4042358
					C504.4279785,221.2858124,506.1825256,214.1102753,508.4065857,204.7756348z"/>
				<path class="st26" d="M497.164032,184.9664001c0,0,3.6122131-0.3553009,5.743988-0.2368622"/>
			</g>
		</g>
		<g>
			<path class="st25" d="M499.8111877,178.6499786c0,0-4.6583557,2.2107544-9.4746399,6.9480591
				c0,0-1.1053772-16.8964233,7.8165894-18.5544891c8.921936-1.6580658,11.3695374,16.1858368,11.3695374,16.1858368
				S507.2329712,180.860733,499.8111877,178.6499786z"/>
			<path class="st26" d="M504.4528503,169.6976776c3.8513489,4.6485901,5.0698242,13.5317078,5.0698242,13.5317078
				s-2.2897034-2.3686523-9.7114868-4.5794067c0,0-4.6583557,2.2107544-9.4746399,6.9480591
				c0,0-0.5689087-8.6961365,2.4038086-14.2232666"/>
		</g>
	</g>
</g>
<g id="MAN_NECK">
	<g>
		<path class="st19" d="M501.4086609,173.7768555c0,0-2.548645,1.771759-6.0353394,0.4737396l-1.203186-8.5556335
			l-1.3265991-9.389328l8.4325562-7.2386475l0.0756531-0.0663147v0.5874176l0.009491,4.8320923L501.4086609,173.7768555z"/>
		<path class="st20" d="M501.3612366,154.4201813c-0.3883972,3.7614136-1.9044189,9.0956268-7.1911011,11.2747803
			l-1.3265991-9.389328l8.4325562-7.2386475c0.0378418,0.1989899,0.0567932,0.3695374,0.0756531,0.5211029
			c0.0569153,0.4737244,0.0569153,0.7579498,0.0569153,0.7769318
			C501.4086609,150.3650208,501.5980835,152.0894012,501.3612366,154.4201813z"/>
	</g>
</g>
<g id="MAN_HEAD">
	<g>
		<g>
			<path class="st19" d="M486.2387695,146.7577057c0,0-1.9935913-2.9014893-4.3294983-1.4460144
				c-2.335907,1.4554596-0.4247742,7.6679993,4.7168274,8.3286896L486.2387695,146.7577057z"/>
			<path class="st28" d="M482.8509521,147.1497498c0,0,1.6758118,0.7043457,2.8996887,3.5585175"/>
		</g>
		<path class="st19" d="M494.3041077,133.8317261c-7.519989-0.9836121-9.9381409,9.8694153-9.4813232,17.9621429
			c0.4568176,8.0927124,6.8929138,13.6405182,14.0099487,7.8411407S509.680481,135.8429413,494.3041077,133.8317261z"/>
		<path class="st20" d="M501.3458557,161.3650665l-0.0333862-4.9180145l0.2251587-4.7179565l1.602417-5.4554138
			c0,0-6.015625-0.1424866-3.2743225-6.9239044c0,0-8.1209717,7.8531799-15.4694519,6.6391296
			c-7.3507996-1.2047272-11.9966736-10.3153687-10.4711914-12.719986c1.4512329-2.3045959,4.6711121,0.6671906,4.9269714,0.9084473
			c-0.3167419-0.5525055-6.4866638-11.1573105-1.3547363-16.5549927c5.2640076-5.5326462,17.2581482,6.2627716,24.1875,13.4138184
			c1.0611267,1.0928345,2.1011047,2.1113586,3.0968933,3.0695648c-0.5066528-1.7744446-1.261261-4.6173096-1.8044128-7.5556488
			c-0.8874512-4.8501205,6.1114502-2.7457123,4.3868713,9.9149475c0,0,5.7020569-6.3023529,8.5163269-4.240799
			c2.3746948,1.7252502-2.3789062,5.1242523-6.5874939,6.1711273c3.1992493,3.1344604,5.3172913,5.7337646,5.2331848,8.7334442
			C514.3845825,152.1476898,501.3458557,161.3650665,501.3458557,161.3650665z"/>
		<g>
			<path class="st19" d="M503.2808838,149.1828308c0,0,1.4767456-3.1290741,5.0699768-2.0305328
				s0.8744812,9.0602264-6.418335,6.9601135L503.2808838,149.1828308z"/>
			<path class="st28" d="M503.5947571,152.057663c0,0,1.4187622-3.0612335,4.5361023-3.0269318"/>
			<path class="st28" d="M506.5087891,152.0825653c0,0,0.0776062-1.2467194-0.8468018-2.3419037"/>
		</g>
	</g>
</g>
<g id="MAN_FACE">
	<g>
		<path class="st20" d="M499.6069641,143.5063782c0,0-1.2440796-3.0755768-3.5790405-2.1130829
			c0,0-0.0103149-0.6781769-0.5979004-0.7373352c-0.587616-0.0591583-0.78479,1.778244-0.78479,1.778244
			S497.3635864,142.4146118,499.6069641,143.5063782z"/>
		<path class="st20" d="M484.8631287,146.2047577c0,0,1.2167664-2.7794495,2.567627-1.3872986
			c0,0,0.2351074-0.5092163,0.6129761-0.4373779c0.6535034,0.1242523,0.1787109,1.802887,0.1787109,1.802887
			S486.4403076,145.5635681,484.8631287,146.2047577z"/>
		<g>
			
				<ellipse transform="matrix(0.0436733 -0.9990458 0.9990458 0.0436733 323.7723999 637.8866577)" class="st20" cx="495.0767517" cy="149.8256683" rx="1.5400188" ry="1.2456034"/>
			<circle class="st25" cx="494.8262939" cy="149.2678223" r="0.3312173"/>
		</g>
		<g>
			
				<ellipse transform="matrix(0.0436733 -0.9990458 0.9990458 0.0436733 317.0819702 630.2564697)" class="st20" cx="487.7460327" cy="149.5052032" rx="1.5400188" ry="1.2456034"/>
			<circle class="st25" cx="487.4955444" cy="148.9473572" r="0.3312173"/>
		</g>
		<path class="st28" d="M490.2068787,152.8027344c0,0-1.5071411,0.4789276-1.22995,1.5623779
			c0.321167,1.2554169,2.1164246,0.8802795,2.1164246,0.8802795"/>
		<circle class="st28" cx="495.168335" cy="149.8766785" r="3.4527338"/>
		<circle class="st28" cx="486.6575012" cy="149.2807617" r="3.4527338"/>
		<path class="st28" d="M496.5620117,156.722702c0,0-2.7485657-1.1061554-5.5447388,1.5454102"/>
	</g>
</g>
<g id="MAN_LEFT_ARM">
	<g>
		<g>
			<path class="st19" d="M481.1931152,207.298233l-7.8717041-13.2815857
				c-0.7616577-1.2851257-2.1755676-2.0391693-3.6671143-1.9556732l-8.1764526,0.4576569
				c-0.6433105,0.0498505-1.1398621,0.58638-1.1398621,1.2315979v0.0000153c0,0.6822357,0.5530701,1.2353058,1.2352905,1.2352905
				h0.9196777l-4.1287537,0.6921082c-0.6419678,0.1076202-1.1122437,0.6632843-1.1122437,1.314209v0.0000153
				c0,0.7975464,0.6958618,1.4164734,1.4879761,1.3234558l3.5939026-0.4220886l-4.2028503,1.2889252
				c-0.678772,0.2081604-1.1152039,0.8677368-1.0414124,1.5738831l0,0c0.0883179,0.8450165,0.8663635,1.4437561,1.7058105,1.3126984
				l4.572937-0.7139587l-3.5401917,1.9360504c-0.7137756,0.3903503-1.0122681,1.2604828-0.6884155,2.0067902h0.0000305
				c0.3223267,0.7427673,1.1557617,1.1196136,1.9263611,0.8710327l4.1921387-1.3523407l6.1560364,6.8300934
				c1.2746582,1.4142303,3.1310425,2.1604919,5.0298767,2.0220337l2.7198181-0.1983337l8.1166687,2.9243927l0.4782715-7.9972839
				L481.1931152,207.298233z"/>
			<g>
				<line class="st29" x1="463.9651184" y1="194.7946625" x2="468.1030273" y2="194.3522034"/>
				<line class="st29" x1="463.9651184" y1="197.5749969" x2="467.8642883" y2="196.8986053"/>
				<path class="st29" d="M471.6219177,193.7911987l-0.6981506,0.5317993
					c-0.3771057,0.2872772-0.5038757,0.7980652-0.3048706,1.2283478l0.1932068,0.4176636
					c0.2071533,0.4478455,0.0606384,0.9798279-0.3465881,1.2584686l-0.2505798,0.1714478
					c-0.3865356,0.2644653-0.540741,0.7598419-0.3726196,1.1969757l0.2315674,0.6020355
					c0.169281,0.4401398,0.0116882,0.9388428-0.3797302,1.2018127l-0.2130127,0.1430969
					c-0.3616638,0.242981-0.5269165,0.6903992-0.4100342,1.1101379l0.1402283,0.5034332
					c0.1060791,0.3809052-0.0196838,0.788681-0.3218994,1.0436554l-0.8381042,0.6705322l0.6113892,1.41922"/>
			</g>
		</g>
		<g>
			<path class="st0" d="M519.3146362,170.5818024l-4.956543,47.6978149c0,0,0,11.2976685,9.7211914,11.5759125
				c8.0092773,0.2292633,10.9033203-1.2214508,12.4081421-16.2393799
				c1.5047607-15.0179443,0.9040527-37.9414368-0.1296997-43.9184723S521.9828491,158.8047028,519.3146362,170.5818024z"/>
			<path class="st28" d="M519.3146362,170.5818024l-4.956543,47.6978149"/>
		</g>
		<g>
			<polygon class="st25" points="478.7260437,217.2314453 483.1214905,218.2796173 484.4853821,206.1053619 
				480.0284424,205.6060333 			"/>
			<path class="st0" d="M482.4364929,219.4644623l34.499176,10.9293976l2.9408569,0.9303741
				c6.3308716,2.010498,13.0788574-1.5613556,14.9717407-7.9350586v-0.0000153
				c0.9500122-3.1774902-0.1908569-6.6097412-2.8540039-8.5862274l-3.4085083-2.5296478
				c-3.3331909-2.4737244-7.2780151-3.991333-11.409729-4.3893738l-13.5545349-1.3058319l-19.6771545-1.9035797
				L482.4364929,219.4644623z"/>
			<path class="st28" d="M524.7578735,209.9762573c-2.3770142-1.1262817-4.9412842-1.8379517-7.5818481-2.0923462
				l-13.5545349-1.3058319l-19.6771545-1.9035797l-1.507843,14.7899628l34.499176,10.9293976l2.9408569,0.9303741
				c0.7913818,0.2513123,1.5892334,0.4154053,2.3833008,0.4976959c0,0,8.2755127,1.0752411,11.9086914-6.6719055"/>
			<circle class="st20" cx="487.2298889" cy="216.9091034" r="1.3705238"/>
		</g>
	</g>
</g>
<g id="MAN_RIGHT_ARM">
	<g>
		<path class="st19" d="M505.0990295,200.0593719l9.4339905-1.3878021c2.2918091-0.3371429,4.5311279,0.8784485,5.4970093,2.9839325
			l3.5871582,7.2106171l-4.3025513-1.2626343c-1.9550171-0.2689362-3.8084106-0.4584351-5.5032959-0.5241241l-7.4004822,2.897049
			L505.0990295,200.0593719z"/>
		<polygon class="st25" points="507.9353638,210.8353424 503.6636353,212.3087769 501.1144714,200.3265076 505.5010986,199.39328 		
			"/>
		<path class="st0" d="M504.4613342,213.4208679l-33.2635193,14.2542267l-2.8356628,1.2138214
			c-6.1036377,2.6206055-13.1688843-0.2734985-15.6766357-6.4312744v-0.0000153
			c-1.2565308-3.0692139-0.4571533-6.5966797,1.9997559-8.8243713l3.1445007-2.8511963
			c3.0749817-2.788147,6.8523254-4.6846313,10.9252014-5.4852448l13.3615723-2.6264954l19.3963013-3.820755L504.4613342,213.4208679
			z"/>
		<circle class="st20" cx="499.4407959" cy="211.3470306" r="1.3705238"/>
		<path class="st28" d="M455.5447083,212.8539734l2.2850647-2.0719147c3.0749817-2.788147,6.8523254-4.6846313,10.9252014-5.4852448
			l13.3615723-2.6264954l19.3963013-3.820755l2.9484863,14.5713043l-33.552063,14.961853"/>
	</g>
</g>
<g id="GROUND">
	<g>
		<line class="st22" x1="402.816925" y1="494.3637085" x2="322.1679993" y2="494.3637085"/>
		<line class="st22" x1="573.0501099" y1="494.3637085" x2="441.1885986" y2="494.3637085"/>
		<line class="st22" x1="216.4220734" y1="494.3637085" x2="101.8577881" y2="494.3637085"/>
		<line class="st22" x1="351.773407" y1="500.9859314" x2="153.6298676" y2="500.9859314"/>
		<line class="st22" x1="428.5167542" y1="509.7987976" x2="230.3732147" y2="509.7987976"/>
		<line class="st22" x1="176.6274567" y1="509.7987976" x2="125.5499268" y2="509.7987976"/>
		<line class="st22" x1="516.6361084" y1="509.7987976" x2="465.5585632" y2="509.7987976"/>
		<line class="st22" x1="325.9319763" y1="520.5987549" x2="274.8544312" y2="520.5987549"/>
		<line class="st22" x1="95.6419373" y1="500.9859314" x2="63.3588104" y2="500.9859314"/>
	</g>
</g>
</svg>
